<svg xmlns="http://www.w3.org/2000/svg" xmlns:xlink="http://www.w3.org/1999/xlink" x="0" y="0" width="662" height="302" style="
        width:662px;
        height:302px;
        background: #FFF;
        fill: none;
">
        
        
        <svg xmlns="http://www.w3.org/2000/svg" class="role-diagram-draw-area"><g class="shapes-region" style="stroke: black; fill: none;"><g class="composite-shape"><path class="real" d=" M459,158 L395,268.85 L267,268.85 L203,158 L267,47.15 L395,47.15 Z" style="stroke-width: 1; stroke: rgb(0, 0, 0); fill: none; fill-opacity: 1;"/></g><g class="composite-shape"><path class="real" d=" M306,158 C306,144.19 317.19,133 331,133 C344.81,133 356,144.19 356,158 C356,171.81 344.81,183 331,183 C317.19,183 306,171.81 306,158 Z" style="stroke-width: 1; stroke: rgb(0, 0, 0); fill: none; fill-opacity: 1;"/></g><g class="arrow-line"><path class="connection real" stroke-dasharray="" d="  M267,47.15 L319,137" style="stroke: rgb(0, 0, 0); stroke-width: 1; fill: none; fill-opacity: 1;"/></g><g class="arrow-line"><path class="connection real" stroke-dasharray="" d="  M395,47.15 L341,135" style="stroke: rgb(0, 0, 0); stroke-width: 1; fill: none; fill-opacity: 1;"/></g><g class="arrow-line"><path class="connection real" stroke-dasharray="" d="  M203,158 L306,158" style="stroke: rgb(0, 0, 0); stroke-width: 1; fill: none; fill-opacity: 1;"/></g><g class="arrow-line"><path class="connection real" stroke-dasharray="" d="  M459,158 L356,158" style="stroke: rgb(0, 0, 0); stroke-width: 1; fill: none; fill-opacity: 1;"/></g><g class="arrow-line"><path class="connection real" stroke-dasharray="" d="  M267,268.85 L318,179" style="stroke: rgb(0, 0, 0); stroke-width: 1; fill: none; fill-opacity: 1;"/></g><g class="arrow-line"><path class="connection real" stroke-dasharray="" d="  M395,268.85 L344,180" style="stroke: rgb(0, 0, 0); stroke-width: 1; fill: none; fill-opacity: 1;"/></g><g class="arrow-line"><path class="connection real" stroke-dasharray="" d="  M273,59 L379,72" style="stroke: rgb(0, 0, 0); stroke-width: 1; fill: none; fill-opacity: 1;"/></g><g class="arrow-line"><path class="connection real" stroke-dasharray="" d="  M283,77 L368,91.07" style="stroke: rgb(0, 0, 0); stroke-width: 1; fill: none; fill-opacity: 1;"/></g><g class="arrow-line"><path class="connection real" stroke-dasharray="" d="  M293,92.07 L359,106" style="stroke: rgb(0, 0, 0); stroke-width: 1; fill: none; fill-opacity: 1;"/></g><g class="arrow-line"><path class="connection real" stroke-dasharray="" d="  M304,111 L350,120" style="stroke: rgb(0, 0, 0); stroke-width: 1; fill: none; fill-opacity: 1;"/></g><g class="arrow-line"><path class="connection real" stroke-dasharray="" d="  M210,170 L316,183" style="stroke: rgb(0, 0, 0); stroke-width: 1; fill: none; fill-opacity: 1;"/></g><g class="arrow-line"><path class="connection real" stroke-dasharray="" d="  M220,188 L305,202.07" style="stroke: rgb(0, 0, 0); stroke-width: 1; fill: none; fill-opacity: 1;"/></g><g class="arrow-line"><path class="connection real" stroke-dasharray="" d="  M233,208 L295,219" style="stroke: rgb(0, 0, 0); stroke-width: 1; fill: none; fill-opacity: 1;"/></g><g class="arrow-line"><path class="connection real" stroke-dasharray="" d="  M242,227 L286,237" style="stroke: rgb(0, 0, 0); stroke-width: 1; fill: none; fill-opacity: 1;"/></g><g class="arrow-line"><path class="connection real" stroke-dasharray="" d="  M353,170 L444,187" style="stroke: rgb(0, 0, 0); stroke-width: 1; fill: none; fill-opacity: 1;"/></g><g class="arrow-line"><path class="connection real" stroke-dasharray="" d="  M349,191 L432,205" style="stroke: rgb(0, 0, 0); stroke-width: 1; fill: none; fill-opacity: 1;"/></g><g class="arrow-line"><path class="connection real" stroke-dasharray="" d="  M359,206.07 L425,218" style="stroke: rgb(0, 0, 0); stroke-width: 1; fill: none; fill-opacity: 1;"/></g><g class="arrow-line"><path class="connection real" stroke-dasharray="" d="  M369.5,224.43 L416,232" style="stroke: rgb(0, 0, 0); stroke-width: 1; fill: none; fill-opacity: 1;"/></g><g/></g><g/><g/><g/></svg>
        <svg xmlns="http://www.w3.org/2000/svg" xmlns:xlink="http://www.w3.org/1999/xlink" width="660" height="300" style="width:660px;height:300px;font-family:Asana-Math, Asana;background:#FFF;"><g><g><g><g><g><g><g transform="matrix(1,0,0,1,322,162.48)"><path transform="matrix(0.024480000000000002,0,0,-0.024480000000000002,0,0)" d="M418 -3L418 27L366 30C311 33 301 44 301 96L301 700L60 598L67 548L217 614L217 96C217 44 206 33 152 30L96 27L96 -3C250 0 250 0 261 0C292 0 402 -3 418 -3Z" stroke="rgb(0,0,0)" stroke-opacity="1" stroke-width="8" fill="rgb(0,0,0)" fill-opacity="1"></path></g></g></g></g></g></g></g><g><g><g><g><g><g><g transform="matrix(1,0,0,1,245,42)"><path transform="matrix(0.017,0,0,-0.017,0,0)" d="M31 148C26 97 20 62 9 16C47 -2 81 -11 116 -11C165 -11 211 7 262 47C313 87 334 124 334 174C334 228 302 257 228 271L185 279C125 290 106 307 106 348C106 401 151 442 208 442C249 442 287 424 303 397L303 342L326 342C330 377 334 404 345 455C306 474 278 482 245 482C193 482 132 452 84 404C58 377 47 352 47 316C47 260 78 228 144 215L207 203C251 195 267 177 267 138C267 73 221 29 150 29C115 29 84 40 56 64L56 148ZM422 388L429 368L461 389C498 412 501 414 508 414C518 414 526 404 526 391C526 384 522 361 518 347L452 107C444 76 439 49 439 30C439 6 450 -9 469 -9C495 -9 531 12 629 85L619 103L593 86C564 67 541 56 532 56C525 56 519 66 519 76C519 86 521 95 526 116L603 420C607 437 609 448 609 456C609 473 600 482 584 482C562 482 525 461 450 408ZM616 712C587 712 558 679 558 645C558 620 573 604 597 604C628 604 652 633 652 671C652 695 637 712 616 712ZM689 388L696 368L728 389C765 412 768 414 775 414C786 414 793 404 793 389C793 338 752 145 711 2L718 -9C743 -2 766 4 788 8C807 134 828 199 874 268C928 352 1003 414 1048 414C1059 414 1065 405 1065 390C1065 372 1062 351 1054 319L1002 107C993 70 989 47 989 31C989 6 1000 -9 1019 -9C1045 -9 1081 12 1179 85L1169 103L1143 86C1114 67 1092 56 1082 56C1075 56 1069 65 1069 76C1069 81 1070 92 1071 96L1137 372C1144 401 1148 429 1148 446C1148 469 1137 482 1117 482C1075 482 1006 444 947 389C909 354 881 320 829 247L867 408C871 426 873 438 873 449C873 470 865 482 850 482C829 482 790 460 717 408Z" stroke="rgb(0,0,0)" stroke-opacity="1" stroke-width="8" fill="rgb(0,0,0)" fill-opacity="1"></path></g></g></g></g></g></g></g><g><g><g><g><g><g><g transform="matrix(1,0,0,1,393,44)"><path transform="matrix(0.017,0,0,-0.017,0,0)" d="M342 330L365 330C373 395 380 432 389 458C365 473 330 482 293 482C248 483 175 463 118 400C64 352 25 241 25 136C25 40 67 -11 147 -11C201 -11 249 9 304 54L354 95L346 115L331 105C259 57 221 40 186 40C130 40 101 80 101 159C101 267 136 371 185 409C206 425 230 433 261 433C306 433 342 414 342 390ZM423 152C423 46 468 -11 551 -11C606 -11 666 15 711 57C773 116 817 230 817 331C817 425 767 482 684 482C580 482 423 382 423 152ZM647 444C708 444 741 399 741 315C741 219 710 113 666 60C648 39 622 27 591 27C533 27 499 72 499 151C499 264 538 387 587 427C600 438 623 444 647 444ZM880 148C875 97 869 62 858 16C896 -2 930 -11 965 -11C1014 -11 1060 7 1111 47C1162 87 1183 124 1183 174C1183 228 1151 257 1077 271L1034 279C974 290 955 307 955 348C955 401 1000 442 1057 442C1098 442 1136 424 1152 397L1152 342L1175 342C1179 377 1183 404 1194 455C1155 474 1127 482 1094 482C1042 482 981 452 933 404C907 377 896 352 896 316C896 260 927 228 993 215L1056 203C1100 195 1116 177 1116 138C1116 73 1070 29 999 29C964 29 933 40 905 64L905 148Z" stroke="rgb(0,0,0)" stroke-opacity="1" stroke-width="8" fill="rgb(0,0,0)" fill-opacity="1"></path></g></g></g></g></g></g></g><g><g><g><g><g><g><g transform="matrix(1,0,0,1,176,165)"><path transform="matrix(0.017,0,0,-0.017,0,0)" d="M125 390L69 107C68 99 56 61 56 31C56 6 67 -9 86 -9C121 -9 156 11 234 74L265 99L255 117L210 86C181 66 161 56 150 56C141 56 136 64 136 76C136 102 150 183 179 328L192 390L299 390L310 440C272 436 238 434 200 434C216 528 227 577 245 631L234 646C214 634 187 622 156 610L131 440C87 419 61 408 43 403L41 390ZM603 204L574 77C570 60 568 42 568 26C568 4 577 -9 592 -9C615 -9 656 17 738 85L731 106C707 86 678 59 656 59C647 59 641 68 641 82C641 87 641 90 642 93L734 472L724 481L691 463C650 478 633 482 606 482C578 482 558 477 531 464C469 433 436 403 411 354C367 265 336 145 336 67C336 23 351 -11 370 -11C407 -11 487 41 603 204ZM651 414C629 305 610 253 576 201C519 117 458 59 426 59C414 59 408 72 408 99C408 163 436 280 471 360C495 415 518 433 566 433C589 433 607 429 651 414ZM799 388L806 368L838 389C875 412 878 414 885 414C896 414 903 404 903 389C903 338 862 145 821 2L828 -9C853 -2 876 4 898 8C917 134 938 199 984 268C1038 352 1113 414 1158 414C1169 414 1175 405 1175 390C1175 372 1172 351 1164 319L1112 107C1103 70 1099 47 1099 31C1099 6 1110 -9 1129 -9C1155 -9 1191 12 1289 85L1279 103L1253 86C1224 67 1202 56 1192 56C1185 56 1179 65 1179 76C1179 81 1180 92 1181 96L1247 372C1254 401 1258 429 1258 446C1258 469 1247 482 1227 482C1185 482 1116 444 1057 389C1019 354 991 320 939 247L977 408C981 426 983 438 983 449C983 470 975 482 960 482C939 482 900 460 827 408Z" stroke="rgb(0,0,0)" stroke-opacity="1" stroke-width="8" fill="rgb(0,0,0)" fill-opacity="1"></path></g></g></g></g></g></g></g><g><g><g><g><g><g><g transform="matrix(1,0,0,1,249,283)"><path transform="matrix(0.017,0,0,-0.017,0,0)" d="M31 148C26 97 20 62 9 16C47 -2 81 -11 116 -11C165 -11 211 7 262 47C313 87 334 124 334 174C334 228 302 257 228 271L185 279C125 290 106 307 106 348C106 401 151 442 208 442C249 442 287 424 303 397L303 342L326 342C330 377 334 404 345 455C306 474 278 482 245 482C193 482 132 452 84 404C58 377 47 352 47 316C47 260 78 228 144 215L207 203C251 195 267 177 267 138C267 73 221 29 150 29C115 29 84 40 56 64L56 148ZM716 111L692 94C639 56 591 36 555 36C508 36 479 73 479 133C479 158 482 185 487 214C504 218 613 248 638 259C723 296 762 342 762 404C762 451 728 482 678 482C610 496 500 423 463 349C433 299 403 180 403 113C403 35 447 -11 519 -11C576 -11 632 17 724 92ZM501 274C518 343 538 386 567 412C585 428 616 440 640 440C669 440 688 420 688 388C688 344 653 297 601 272C573 258 537 247 492 237ZM1118 330L1141 330C1149 395 1156 432 1165 458C1141 473 1106 482 1069 482C1024 483 951 463 894 400C840 352 801 241 801 136C801 40 843 -11 923 -11C977 -11 1025 9 1080 54L1130 95L1122 115L1107 105C1035 57 997 40 962 40C906 40 877 80 877 159C877 267 912 371 961 409C982 425 1006 433 1037 433C1082 433 1118 414 1118 390Z" stroke="rgb(0,0,0)" stroke-opacity="1" stroke-width="8" fill="rgb(0,0,0)" fill-opacity="1"></path></g></g></g></g></g></g></g><g><g><g><g><g><g><g transform="matrix(1,0,0,1,397,280)"><path transform="matrix(0.017,0,0,-0.017,0,0)" d="M342 330L365 330C373 395 380 432 389 458C365 473 330 482 293 482C248 483 175 463 118 400C64 352 25 241 25 136C25 40 67 -11 147 -11C201 -11 249 9 304 54L354 95L346 115L331 105C259 57 221 40 186 40C130 40 101 80 101 159C101 267 136 371 185 409C206 425 230 433 261 433C306 433 342 414 342 390ZM437 148C432 97 426 62 415 16C453 -2 487 -11 522 -11C571 -11 617 7 668 47C719 87 740 124 740 174C740 228 708 257 634 271L591 279C531 290 512 307 512 348C512 401 557 442 614 442C655 442 693 424 709 397L709 342L732 342C736 377 740 404 751 455C712 474 684 482 651 482C599 482 538 452 490 404C464 377 453 352 453 316C453 260 484 228 550 215L613 203C657 195 673 177 673 138C673 73 627 29 556 29C521 29 490 40 462 64L462 148ZM1136 330L1159 330C1167 395 1174 432 1183 458C1159 473 1124 482 1087 482C1042 483 969 463 912 400C858 352 819 241 819 136C819 40 861 -11 941 -11C995 -11 1043 9 1098 54L1148 95L1140 115L1125 105C1053 57 1015 40 980 40C924 40 895 80 895 159C895 267 930 371 979 409C1000 425 1024 433 1055 433C1100 433 1136 414 1136 390Z" stroke="rgb(0,0,0)" stroke-opacity="1" stroke-width="8" fill="rgb(0,0,0)" fill-opacity="1"></path></g></g></g></g></g></g></g><g><g><g><g><g><g><g transform="matrix(1,0,0,1,465,162)"><path transform="matrix(0.017,0,0,-0.017,0,0)" d="M342 330L365 330C373 395 380 432 389 458C365 473 330 482 293 482C248 483 175 463 118 400C64 352 25 241 25 136C25 40 67 -11 147 -11C201 -11 249 9 304 54L354 95L346 115L331 105C259 57 221 40 186 40C130 40 101 80 101 159C101 267 136 371 185 409C206 425 230 433 261 433C306 433 342 414 342 390ZM423 152C423 46 468 -11 551 -11C606 -11 666 15 711 57C773 116 817 230 817 331C817 425 767 482 684 482C580 482 423 382 423 152ZM647 444C708 444 741 399 741 315C741 219 710 113 666 60C648 39 622 27 591 27C533 27 499 72 499 151C499 264 538 387 587 427C600 438 623 444 647 444ZM974 390L918 107C917 99 905 61 905 31C905 6 916 -9 935 -9C970 -9 1005 11 1083 74L1114 99L1104 117L1059 86C1030 66 1010 56 999 56C990 56 985 64 985 76C985 102 999 183 1028 328L1041 390L1148 390L1159 440C1121 436 1087 434 1049 434C1065 528 1076 577 1094 631L1083 646C1063 634 1036 622 1005 610L980 440C936 419 910 408 892 403L890 390Z" stroke="rgb(0,0,0)" stroke-opacity="1" stroke-width="8" fill="rgb(0,0,0)" fill-opacity="1"></path></g></g></g></g></g></g></g></svg>
</svg>
